<svg xmlns="http://www.w3.org/2000/svg" viewBox="0 0 512 512">
  <defs>
    <linearGradient id="dome" x1="0" y1="0" x2="0" y2="1">
      <stop offset="0%" stop-color="#D8F0B0"/>
      <stop offset="50%" stop-color="#7CC84C"/>
      <stop offset="100%" stop-color="#2E7020"/>
    </linearGradient>
  </defs>
  <rect width="512" height="512" fill="#0B1623"/>
  <g transform="translate(35, 56) scale(20)">
    <rect x="10" y="1" width="2" height="3" fill="#1E3848" stroke="rgba(74,158,219,0.4)" stroke-width="0.4"/>
    <path d="M 4 12 Q 4 4 11 4 Q 18 4 18 12 Z" fill="url(#dome)" stroke="#9ADA60" stroke-width="1"/>
    <ellipse cx="7" cy="7.5" rx="1.2" ry="2.5" fill="rgba(255,255,255,0.18)"/>
    <path d="M 4.3 7 Q 11 7.8 17.7 7" stroke="rgba(15,50,10,0.5)" stroke-width="0.5" fill="none"/>
    <path d="M 4.3 9.5 Q 11 10.3 17.7 9.5" stroke="rgba(15,50,10,0.5)" stroke-width="0.5" fill="none"/>
    <rect x="4" y="11.5" width="14" height="1.3" fill="#1C3040" stroke="rgba(100,170,220,0.4)" stroke-width="0.4"/>
    <rect x="5" y="13" width="12" height="6.5" rx="0.5" fill="#182838" stroke="rgba(74,130,190,0.3)" stroke-width="0.5"/>
    <line x1="5" y1="14.5" x2="17" y2="14.5" stroke="rgba(74,130,190,0.18)" stroke-width="0.3"/>
    <line x1="5" y1="17" x2="17" y2="17" stroke="rgba(74,130,190,0.18)" stroke-width="0.3"/>
    <rect x="5.5" y="16" width="11" height="3" fill="rgba(28,120,55,0.65)"/>
    <ellipse cx="11" cy="16" rx="5.4" ry="0.4" fill="rgba(60,195,88,0.4)"/>
  </g>
</svg>
